G04 #@! TF.FileFunction,Legend,Top*
%FSLAX46Y46*%
G04 Gerber Fmt 4.6, Leading zero omitted, Abs format (unit mm)*
G04 Created by KiCad (PCBNEW 4.0.2-stable) date 12/8/2016 2:04:04 PM*
%MOMM*%
G01*
G04 APERTURE LIST*
%ADD10C,0.150000*%
%ADD11C,0.304800*%
%ADD12C,0.271780*%
%ADD13C,0.254000*%
G04 APERTURE END LIST*
D10*
X209240381Y-172434285D02*
X209240381Y-173005714D01*
X209240381Y-172720000D02*
X208240381Y-172720000D01*
X208383238Y-172815238D01*
X208478476Y-172910476D01*
X208526095Y-173005714D01*
X261112000Y-157226000D02*
X260604000Y-157226000D01*
X261112000Y-157734000D02*
X260604000Y-157734000D01*
X261112000Y-180594000D02*
X260604000Y-180594000D01*
X261112000Y-180086000D02*
X260604000Y-180086000D01*
X261112000Y-175006000D02*
X260604000Y-175006000D01*
X261112000Y-175514000D02*
X260604000Y-175514000D01*
X261112000Y-177546000D02*
X260604000Y-177546000D01*
X261112000Y-178054000D02*
X260604000Y-178054000D01*
X261112000Y-172974000D02*
X260604000Y-172974000D01*
X261112000Y-172466000D02*
X260604000Y-172466000D01*
X261112000Y-170434000D02*
X260604000Y-170434000D01*
X261112000Y-169926000D02*
X260604000Y-169926000D01*
X261112000Y-159766000D02*
X260604000Y-159766000D01*
X261112000Y-160274000D02*
X260604000Y-160274000D01*
X261112000Y-162306000D02*
X260604000Y-162306000D01*
X261112000Y-162814000D02*
X260604000Y-162814000D01*
X261112000Y-167894000D02*
X260604000Y-167894000D01*
X261112000Y-167386000D02*
X260604000Y-167386000D01*
X261112000Y-165354000D02*
X260604000Y-165354000D01*
X261112000Y-164846000D02*
X260604000Y-164846000D01*
X263652000Y-180594000D02*
X263144000Y-180594000D01*
X263652000Y-180086000D02*
X263144000Y-180086000D01*
X263652000Y-178054000D02*
X263144000Y-178054000D01*
X263652000Y-177546000D02*
X263144000Y-177546000D01*
X263652000Y-172466000D02*
X263144000Y-172466000D01*
X263652000Y-172974000D02*
X263144000Y-172974000D01*
X263652000Y-175006000D02*
X263144000Y-175006000D01*
X263652000Y-175514000D02*
X263144000Y-175514000D01*
X263652000Y-170434000D02*
X263144000Y-170434000D01*
X263652000Y-169926000D02*
X263144000Y-169926000D01*
X263652000Y-167894000D02*
X263144000Y-167894000D01*
X263652000Y-167386000D02*
X263144000Y-167386000D01*
X263652000Y-157226000D02*
X263144000Y-157226000D01*
X263652000Y-157734000D02*
X263144000Y-157734000D01*
X263652000Y-159766000D02*
X263144000Y-159766000D01*
X263652000Y-160274000D02*
X263144000Y-160274000D01*
X263652000Y-165354000D02*
X263144000Y-165354000D01*
X263652000Y-164846000D02*
X263144000Y-164846000D01*
X263652000Y-162814000D02*
X263144000Y-162814000D01*
X263652000Y-162306000D02*
X263144000Y-162306000D01*
X259588000Y-155930000D02*
X258438000Y-155930000D01*
X258438000Y-155930000D02*
X258438000Y-157480000D01*
X266192000Y-157353000D02*
X272161000Y-157353000D01*
X272161000Y-157353000D02*
X272161000Y-157607000D01*
X272161000Y-157607000D02*
X266319000Y-157607000D01*
X266319000Y-157607000D02*
X266319000Y-157480000D01*
X266319000Y-157480000D02*
X272161000Y-157480000D01*
X263652000Y-176530000D02*
X266192000Y-176530000D01*
X263652000Y-176530000D02*
X263652000Y-179070000D01*
X263652000Y-179070000D02*
X266192000Y-179070000D01*
X266192000Y-177546000D02*
X272288000Y-177546000D01*
X272288000Y-177546000D02*
X272288000Y-178054000D01*
X272288000Y-178054000D02*
X266192000Y-178054000D01*
X266192000Y-179070000D02*
X266192000Y-176530000D01*
X266192000Y-181610000D02*
X266192000Y-179070000D01*
X272288000Y-180594000D02*
X266192000Y-180594000D01*
X272288000Y-180086000D02*
X272288000Y-180594000D01*
X266192000Y-180086000D02*
X272288000Y-180086000D01*
X263652000Y-179070000D02*
X263652000Y-181610000D01*
X263652000Y-179070000D02*
X266192000Y-179070000D01*
X263652000Y-181610000D02*
X266192000Y-181610000D01*
X263652000Y-166370000D02*
X266192000Y-166370000D01*
X263652000Y-166370000D02*
X263652000Y-168910000D01*
X263652000Y-168910000D02*
X266192000Y-168910000D01*
X266192000Y-167386000D02*
X272288000Y-167386000D01*
X272288000Y-167386000D02*
X272288000Y-167894000D01*
X272288000Y-167894000D02*
X266192000Y-167894000D01*
X266192000Y-168910000D02*
X266192000Y-166370000D01*
X266192000Y-171450000D02*
X266192000Y-168910000D01*
X272288000Y-170434000D02*
X266192000Y-170434000D01*
X272288000Y-169926000D02*
X272288000Y-170434000D01*
X266192000Y-169926000D02*
X272288000Y-169926000D01*
X263652000Y-171450000D02*
X266192000Y-171450000D01*
X263652000Y-168910000D02*
X263652000Y-171450000D01*
X263652000Y-168910000D02*
X266192000Y-168910000D01*
X263652000Y-173990000D02*
X266192000Y-173990000D01*
X263652000Y-173990000D02*
X263652000Y-176530000D01*
X263652000Y-176530000D02*
X266192000Y-176530000D01*
X266192000Y-175006000D02*
X272288000Y-175006000D01*
X272288000Y-175006000D02*
X272288000Y-175514000D01*
X272288000Y-175514000D02*
X266192000Y-175514000D01*
X266192000Y-176530000D02*
X266192000Y-173990000D01*
X266192000Y-173990000D02*
X266192000Y-171450000D01*
X272288000Y-172974000D02*
X266192000Y-172974000D01*
X272288000Y-172466000D02*
X272288000Y-172974000D01*
X266192000Y-172466000D02*
X272288000Y-172466000D01*
X263652000Y-173990000D02*
X266192000Y-173990000D01*
X263652000Y-171450000D02*
X263652000Y-173990000D01*
X263652000Y-171450000D02*
X266192000Y-171450000D01*
X263652000Y-161290000D02*
X266192000Y-161290000D01*
X263652000Y-161290000D02*
X263652000Y-163830000D01*
X263652000Y-163830000D02*
X266192000Y-163830000D01*
X266192000Y-162306000D02*
X272288000Y-162306000D01*
X272288000Y-162306000D02*
X272288000Y-162814000D01*
X272288000Y-162814000D02*
X266192000Y-162814000D01*
X266192000Y-163830000D02*
X266192000Y-161290000D01*
X266192000Y-166370000D02*
X266192000Y-163830000D01*
X272288000Y-165354000D02*
X266192000Y-165354000D01*
X272288000Y-164846000D02*
X272288000Y-165354000D01*
X266192000Y-164846000D02*
X272288000Y-164846000D01*
X263652000Y-166370000D02*
X266192000Y-166370000D01*
X263652000Y-163830000D02*
X263652000Y-166370000D01*
X263652000Y-163830000D02*
X266192000Y-163830000D01*
X263652000Y-158750000D02*
X266192000Y-158750000D01*
X263652000Y-158750000D02*
X263652000Y-161290000D01*
X263652000Y-161290000D02*
X266192000Y-161290000D01*
X266192000Y-159766000D02*
X272288000Y-159766000D01*
X272288000Y-159766000D02*
X272288000Y-160274000D01*
X272288000Y-160274000D02*
X266192000Y-160274000D01*
X266192000Y-161290000D02*
X266192000Y-158750000D01*
X266192000Y-158750000D02*
X266192000Y-156210000D01*
X272288000Y-157734000D02*
X266192000Y-157734000D01*
X272288000Y-157226000D02*
X272288000Y-157734000D01*
X266192000Y-157226000D02*
X272288000Y-157226000D01*
X263652000Y-158750000D02*
X266192000Y-158750000D01*
X263652000Y-156210000D02*
X263652000Y-158750000D01*
X263652000Y-156210000D02*
X266192000Y-156210000D01*
D11*
X207518000Y-138430000D02*
X210058000Y-138430000D01*
X210058000Y-138430000D02*
X210058000Y-163830000D01*
X210058000Y-163830000D02*
X207518000Y-163830000D01*
X207518000Y-163830000D02*
X207518000Y-138430000D01*
X207518000Y-140970000D02*
X210058000Y-140970000D01*
X253238000Y-138430000D02*
X255778000Y-138430000D01*
X255778000Y-138430000D02*
X255778000Y-163830000D01*
X255778000Y-163830000D02*
X253238000Y-163830000D01*
X253238000Y-163830000D02*
X253238000Y-138430000D01*
X253238000Y-140970000D02*
X255778000Y-140970000D01*
X210058000Y-138430000D02*
X212598000Y-138430000D01*
X212598000Y-138430000D02*
X212598000Y-163830000D01*
X212598000Y-163830000D02*
X210058000Y-163830000D01*
X210058000Y-163830000D02*
X210058000Y-138430000D01*
X210058000Y-140970000D02*
X212598000Y-140970000D01*
X250698000Y-138430000D02*
X253238000Y-138430000D01*
X253238000Y-138430000D02*
X253238000Y-163830000D01*
X253238000Y-163830000D02*
X250698000Y-163830000D01*
X250698000Y-163830000D02*
X250698000Y-138430000D01*
X250698000Y-140970000D02*
X253238000Y-140970000D01*
D10*
X210058000Y-176530000D02*
X227838000Y-176530000D01*
X227838000Y-176530000D02*
X227838000Y-173990000D01*
X227838000Y-173990000D02*
X210058000Y-173990000D01*
X207238000Y-176810000D02*
X208788000Y-176810000D01*
X210058000Y-176530000D02*
X210058000Y-173990000D01*
X208788000Y-173710000D02*
X207238000Y-173710000D01*
X207238000Y-173710000D02*
X207238000Y-176810000D01*
X232918000Y-176530000D02*
X245618000Y-176530000D01*
X245618000Y-176530000D02*
X245618000Y-173990000D01*
X245618000Y-173990000D02*
X232918000Y-173990000D01*
X230098000Y-176810000D02*
X231648000Y-176810000D01*
X232918000Y-176530000D02*
X232918000Y-173990000D01*
X231648000Y-173710000D02*
X230098000Y-173710000D01*
X230098000Y-173710000D02*
X230098000Y-176810000D01*
X200914000Y-128270000D02*
X223774000Y-128270000D01*
X223774000Y-128270000D02*
X223774000Y-125730000D01*
X223774000Y-125730000D02*
X200914000Y-125730000D01*
X198094000Y-128550000D02*
X199644000Y-128550000D01*
X200914000Y-128270000D02*
X200914000Y-125730000D01*
X199644000Y-125450000D02*
X198094000Y-125450000D01*
X198094000Y-125450000D02*
X198094000Y-128550000D01*
X227838000Y-128270000D02*
X245618000Y-128270000D01*
X245618000Y-128270000D02*
X245618000Y-125730000D01*
X245618000Y-125730000D02*
X227838000Y-125730000D01*
X225018000Y-128550000D02*
X226568000Y-128550000D01*
X227838000Y-128270000D02*
X227838000Y-125730000D01*
X226568000Y-125450000D02*
X225018000Y-125450000D01*
X225018000Y-125450000D02*
X225018000Y-128550000D01*
X197104000Y-175260000D02*
G75*
G03X197104000Y-175260000I-2286000J0D01*
G01*
X249174000Y-170180000D02*
G75*
G03X249174000Y-170180000I-2286000J0D01*
G01*
X198374000Y-127000000D02*
G75*
G03X198374000Y-127000000I-2286000J0D01*
G01*
X249174000Y-142240000D02*
G75*
G03X249174000Y-142240000I-2286000J0D01*
G01*
X243205000Y-148590000D02*
X243205000Y-153670000D01*
X242925000Y-145770000D02*
X244475000Y-145770000D01*
X245745000Y-146050000D02*
X245745000Y-148590000D01*
X245745000Y-148590000D02*
X243205000Y-148590000D01*
X243205000Y-153670000D02*
X248285000Y-153670000D01*
X248285000Y-153670000D02*
X248285000Y-148590000D01*
X242925000Y-145770000D02*
X242925000Y-147320000D01*
X248285000Y-146050000D02*
X245745000Y-146050000D01*
X248285000Y-148590000D02*
X248285000Y-146050000D01*
X197358000Y-179070000D02*
X245618000Y-179070000D01*
X245618000Y-184150000D02*
X199898000Y-184150000D01*
X245618000Y-179070000D02*
X245618000Y-184150000D01*
X197358000Y-179070000D02*
X197358000Y-181610000D01*
X197078000Y-182880000D02*
X197078000Y-184430000D01*
X197358000Y-181610000D02*
X199898000Y-181610000D01*
X199898000Y-181610000D02*
X199898000Y-184150000D01*
X197078000Y-184430000D02*
X198628000Y-184430000D01*
X197358000Y-118110000D02*
X245618000Y-118110000D01*
X245618000Y-123190000D02*
X199898000Y-123190000D01*
X245618000Y-118110000D02*
X245618000Y-123190000D01*
X197358000Y-118110000D02*
X197358000Y-120650000D01*
X197078000Y-121920000D02*
X197078000Y-123470000D01*
X197358000Y-120650000D02*
X199898000Y-120650000D01*
X199898000Y-120650000D02*
X199898000Y-123190000D01*
X197078000Y-123470000D02*
X198628000Y-123470000D01*
X261112000Y-121666000D02*
X260604000Y-121666000D01*
X261112000Y-122174000D02*
X260604000Y-122174000D01*
X261112000Y-145034000D02*
X260604000Y-145034000D01*
X261112000Y-144526000D02*
X260604000Y-144526000D01*
X261112000Y-139446000D02*
X260604000Y-139446000D01*
X261112000Y-139954000D02*
X260604000Y-139954000D01*
X261112000Y-141986000D02*
X260604000Y-141986000D01*
X261112000Y-142494000D02*
X260604000Y-142494000D01*
X261112000Y-137414000D02*
X260604000Y-137414000D01*
X261112000Y-136906000D02*
X260604000Y-136906000D01*
X261112000Y-134874000D02*
X260604000Y-134874000D01*
X261112000Y-134366000D02*
X260604000Y-134366000D01*
X261112000Y-124206000D02*
X260604000Y-124206000D01*
X261112000Y-124714000D02*
X260604000Y-124714000D01*
X261112000Y-126746000D02*
X260604000Y-126746000D01*
X261112000Y-127254000D02*
X260604000Y-127254000D01*
X261112000Y-132334000D02*
X260604000Y-132334000D01*
X261112000Y-131826000D02*
X260604000Y-131826000D01*
X261112000Y-129794000D02*
X260604000Y-129794000D01*
X261112000Y-129286000D02*
X260604000Y-129286000D01*
X263652000Y-145034000D02*
X263144000Y-145034000D01*
X263652000Y-144526000D02*
X263144000Y-144526000D01*
X263652000Y-142494000D02*
X263144000Y-142494000D01*
X263652000Y-141986000D02*
X263144000Y-141986000D01*
X263652000Y-136906000D02*
X263144000Y-136906000D01*
X263652000Y-137414000D02*
X263144000Y-137414000D01*
X263652000Y-139446000D02*
X263144000Y-139446000D01*
X263652000Y-139954000D02*
X263144000Y-139954000D01*
X263652000Y-134874000D02*
X263144000Y-134874000D01*
X263652000Y-134366000D02*
X263144000Y-134366000D01*
X263652000Y-132334000D02*
X263144000Y-132334000D01*
X263652000Y-131826000D02*
X263144000Y-131826000D01*
X263652000Y-121666000D02*
X263144000Y-121666000D01*
X263652000Y-122174000D02*
X263144000Y-122174000D01*
X263652000Y-124206000D02*
X263144000Y-124206000D01*
X263652000Y-124714000D02*
X263144000Y-124714000D01*
X263652000Y-129794000D02*
X263144000Y-129794000D01*
X263652000Y-129286000D02*
X263144000Y-129286000D01*
X263652000Y-127254000D02*
X263144000Y-127254000D01*
X263652000Y-126746000D02*
X263144000Y-126746000D01*
X259588000Y-120370000D02*
X258438000Y-120370000D01*
X258438000Y-120370000D02*
X258438000Y-121920000D01*
X266192000Y-121793000D02*
X272161000Y-121793000D01*
X272161000Y-121793000D02*
X272161000Y-122047000D01*
X272161000Y-122047000D02*
X266319000Y-122047000D01*
X266319000Y-122047000D02*
X266319000Y-121920000D01*
X266319000Y-121920000D02*
X272161000Y-121920000D01*
X263652000Y-140970000D02*
X266192000Y-140970000D01*
X263652000Y-140970000D02*
X263652000Y-143510000D01*
X263652000Y-143510000D02*
X266192000Y-143510000D01*
X266192000Y-141986000D02*
X272288000Y-141986000D01*
X272288000Y-141986000D02*
X272288000Y-142494000D01*
X272288000Y-142494000D02*
X266192000Y-142494000D01*
X266192000Y-143510000D02*
X266192000Y-140970000D01*
X266192000Y-146050000D02*
X266192000Y-143510000D01*
X272288000Y-145034000D02*
X266192000Y-145034000D01*
X272288000Y-144526000D02*
X272288000Y-145034000D01*
X266192000Y-144526000D02*
X272288000Y-144526000D01*
X263652000Y-143510000D02*
X263652000Y-146050000D01*
X263652000Y-143510000D02*
X266192000Y-143510000D01*
X263652000Y-146050000D02*
X266192000Y-146050000D01*
X263652000Y-130810000D02*
X266192000Y-130810000D01*
X263652000Y-130810000D02*
X263652000Y-133350000D01*
X263652000Y-133350000D02*
X266192000Y-133350000D01*
X266192000Y-131826000D02*
X272288000Y-131826000D01*
X272288000Y-131826000D02*
X272288000Y-132334000D01*
X272288000Y-132334000D02*
X266192000Y-132334000D01*
X266192000Y-133350000D02*
X266192000Y-130810000D01*
X266192000Y-135890000D02*
X266192000Y-133350000D01*
X272288000Y-134874000D02*
X266192000Y-134874000D01*
X272288000Y-134366000D02*
X272288000Y-134874000D01*
X266192000Y-134366000D02*
X272288000Y-134366000D01*
X263652000Y-135890000D02*
X266192000Y-135890000D01*
X263652000Y-133350000D02*
X263652000Y-135890000D01*
X263652000Y-133350000D02*
X266192000Y-133350000D01*
X263652000Y-138430000D02*
X266192000Y-138430000D01*
X263652000Y-138430000D02*
X263652000Y-140970000D01*
X263652000Y-140970000D02*
X266192000Y-140970000D01*
X266192000Y-139446000D02*
X272288000Y-139446000D01*
X272288000Y-139446000D02*
X272288000Y-139954000D01*
X272288000Y-139954000D02*
X266192000Y-139954000D01*
X266192000Y-140970000D02*
X266192000Y-138430000D01*
X266192000Y-138430000D02*
X266192000Y-135890000D01*
X272288000Y-137414000D02*
X266192000Y-137414000D01*
X272288000Y-136906000D02*
X272288000Y-137414000D01*
X266192000Y-136906000D02*
X272288000Y-136906000D01*
X263652000Y-138430000D02*
X266192000Y-138430000D01*
X263652000Y-135890000D02*
X263652000Y-138430000D01*
X263652000Y-135890000D02*
X266192000Y-135890000D01*
X263652000Y-125730000D02*
X266192000Y-125730000D01*
X263652000Y-125730000D02*
X263652000Y-128270000D01*
X263652000Y-128270000D02*
X266192000Y-128270000D01*
X266192000Y-126746000D02*
X272288000Y-126746000D01*
X272288000Y-126746000D02*
X272288000Y-127254000D01*
X272288000Y-127254000D02*
X266192000Y-127254000D01*
X266192000Y-128270000D02*
X266192000Y-125730000D01*
X266192000Y-130810000D02*
X266192000Y-128270000D01*
X272288000Y-129794000D02*
X266192000Y-129794000D01*
X272288000Y-129286000D02*
X272288000Y-129794000D01*
X266192000Y-129286000D02*
X272288000Y-129286000D01*
X263652000Y-130810000D02*
X266192000Y-130810000D01*
X263652000Y-128270000D02*
X263652000Y-130810000D01*
X263652000Y-128270000D02*
X266192000Y-128270000D01*
X263652000Y-123190000D02*
X266192000Y-123190000D01*
X263652000Y-123190000D02*
X263652000Y-125730000D01*
X263652000Y-125730000D02*
X266192000Y-125730000D01*
X266192000Y-124206000D02*
X272288000Y-124206000D01*
X272288000Y-124206000D02*
X272288000Y-124714000D01*
X272288000Y-124714000D02*
X266192000Y-124714000D01*
X266192000Y-125730000D02*
X266192000Y-123190000D01*
X266192000Y-123190000D02*
X266192000Y-120650000D01*
X272288000Y-122174000D02*
X266192000Y-122174000D01*
X272288000Y-121666000D02*
X272288000Y-122174000D01*
X266192000Y-121666000D02*
X272288000Y-121666000D01*
X263652000Y-123190000D02*
X266192000Y-123190000D01*
X263652000Y-120650000D02*
X263652000Y-123190000D01*
X263652000Y-120650000D02*
X266192000Y-120650000D01*
X258778476Y-151832381D02*
X259445143Y-152832381D01*
X259445143Y-151832381D02*
X258778476Y-152832381D01*
X259778476Y-151927619D02*
X259826095Y-151880000D01*
X259921333Y-151832381D01*
X260159429Y-151832381D01*
X260254667Y-151880000D01*
X260302286Y-151927619D01*
X260349905Y-152022857D01*
X260349905Y-152118095D01*
X260302286Y-152260952D01*
X259730857Y-152832381D01*
X260349905Y-152832381D01*
D12*
X208425627Y-136212761D02*
X208425627Y-137448290D01*
X208373859Y-137695396D01*
X208270324Y-137860133D01*
X208115021Y-137942501D01*
X208011486Y-137942501D01*
X209512747Y-137942501D02*
X208891535Y-137942501D01*
X209202141Y-137942501D02*
X209202141Y-136212761D01*
X209098606Y-136459867D01*
X208995071Y-136624604D01*
X208891535Y-136706973D01*
D11*
D13*
X210493429Y-164422666D02*
X210493429Y-163842095D01*
X212017429Y-164132380D02*
X210493429Y-164132380D01*
X212017429Y-163503428D02*
X210493429Y-163503428D01*
X212162571Y-163261523D02*
X212162571Y-162487428D01*
X211219143Y-161906857D02*
X211291714Y-161761714D01*
X211364286Y-161713333D01*
X211509429Y-161664952D01*
X211727143Y-161664952D01*
X211872286Y-161713333D01*
X211944857Y-161761714D01*
X212017429Y-161858476D01*
X212017429Y-162245523D01*
X210493429Y-162245523D01*
X210493429Y-161906857D01*
X210566000Y-161810095D01*
X210638571Y-161761714D01*
X210783714Y-161713333D01*
X210928857Y-161713333D01*
X211074000Y-161761714D01*
X211146571Y-161810095D01*
X211219143Y-161906857D01*
X211219143Y-162245523D01*
X210493429Y-161035999D02*
X210493429Y-160842476D01*
X210566000Y-160745714D01*
X210711143Y-160648952D01*
X211001429Y-160600571D01*
X211509429Y-160600571D01*
X211799714Y-160648952D01*
X211944857Y-160745714D01*
X212017429Y-160842476D01*
X212017429Y-161035999D01*
X211944857Y-161132761D01*
X211799714Y-161229523D01*
X211509429Y-161277904D01*
X211001429Y-161277904D01*
X210711143Y-161229523D01*
X210566000Y-161132761D01*
X210493429Y-161035999D01*
X210493429Y-159971618D02*
X210493429Y-159778095D01*
X210566000Y-159681333D01*
X210711143Y-159584571D01*
X211001429Y-159536190D01*
X211509429Y-159536190D01*
X211799714Y-159584571D01*
X211944857Y-159681333D01*
X212017429Y-159778095D01*
X212017429Y-159971618D01*
X211944857Y-160068380D01*
X211799714Y-160165142D01*
X211509429Y-160213523D01*
X211001429Y-160213523D01*
X210711143Y-160165142D01*
X210566000Y-160068380D01*
X210493429Y-159971618D01*
X211944857Y-159149142D02*
X212017429Y-159003999D01*
X212017429Y-158762095D01*
X211944857Y-158665333D01*
X211872286Y-158616952D01*
X211727143Y-158568571D01*
X211582000Y-158568571D01*
X211436857Y-158616952D01*
X211364286Y-158665333D01*
X211291714Y-158762095D01*
X211219143Y-158955618D01*
X211146571Y-159052380D01*
X211074000Y-159100761D01*
X210928857Y-159149142D01*
X210783714Y-159149142D01*
X210638571Y-159100761D01*
X210566000Y-159052380D01*
X210493429Y-158955618D01*
X210493429Y-158713714D01*
X210566000Y-158568571D01*
X210493429Y-158278285D02*
X210493429Y-157697714D01*
X212017429Y-157987999D02*
X210493429Y-157987999D01*
X211219143Y-157359047D02*
X211219143Y-157020381D01*
X212017429Y-156875238D02*
X212017429Y-157359047D01*
X210493429Y-157359047D01*
X210493429Y-156875238D01*
X212017429Y-155859238D02*
X211291714Y-156197904D01*
X212017429Y-156439809D02*
X210493429Y-156439809D01*
X210493429Y-156052762D01*
X210566000Y-155956000D01*
X210638571Y-155907619D01*
X210783714Y-155859238D01*
X211001429Y-155859238D01*
X211146571Y-155907619D01*
X211219143Y-155956000D01*
X211291714Y-156052762D01*
X211291714Y-156439809D01*
X212162571Y-155665714D02*
X212162571Y-154891619D01*
X211001429Y-154214286D02*
X212017429Y-154214286D01*
X210420857Y-154456190D02*
X211509429Y-154698095D01*
X211509429Y-154069143D01*
X210493429Y-153488571D02*
X210493429Y-153391810D01*
X210566000Y-153295048D01*
X210638571Y-153246667D01*
X210783714Y-153198286D01*
X211074000Y-153149905D01*
X211436857Y-153149905D01*
X211727143Y-153198286D01*
X211872286Y-153246667D01*
X211944857Y-153295048D01*
X212017429Y-153391810D01*
X212017429Y-153488571D01*
X211944857Y-153585333D01*
X211872286Y-153633714D01*
X211727143Y-153682095D01*
X211436857Y-153730476D01*
X211074000Y-153730476D01*
X210783714Y-153682095D01*
X210638571Y-153633714D01*
X210566000Y-153585333D01*
X210493429Y-153488571D01*
X212162571Y-152956381D02*
X212162571Y-152182286D01*
X210493429Y-151650096D02*
X211582000Y-151650096D01*
X211799714Y-151698476D01*
X211944857Y-151795238D01*
X212017429Y-151940381D01*
X212017429Y-152037143D01*
X212017429Y-150634096D02*
X212017429Y-151214667D01*
X212017429Y-150924381D02*
X210493429Y-150924381D01*
X210711143Y-151021143D01*
X210856286Y-151117905D01*
X210928857Y-151214667D01*
D11*
D12*
X254145627Y-136212761D02*
X254145627Y-137448290D01*
X254093859Y-137695396D01*
X253990324Y-137860133D01*
X253835021Y-137942501D01*
X253731486Y-137942501D01*
X254611535Y-136377499D02*
X254663303Y-136295130D01*
X254766838Y-136212761D01*
X255025676Y-136212761D01*
X255129212Y-136295130D01*
X255180979Y-136377499D01*
X255232747Y-136542236D01*
X255232747Y-136706973D01*
X255180979Y-136954079D01*
X254559768Y-137942501D01*
X255232747Y-137942501D01*
D11*
D13*
X256213429Y-164422666D02*
X256213429Y-163842095D01*
X257737429Y-164132380D02*
X256213429Y-164132380D01*
X257737429Y-163503428D02*
X256213429Y-163503428D01*
X257882571Y-163261523D02*
X257882571Y-162487428D01*
X256939143Y-161906857D02*
X257011714Y-161761714D01*
X257084286Y-161713333D01*
X257229429Y-161664952D01*
X257447143Y-161664952D01*
X257592286Y-161713333D01*
X257664857Y-161761714D01*
X257737429Y-161858476D01*
X257737429Y-162245523D01*
X256213429Y-162245523D01*
X256213429Y-161906857D01*
X256286000Y-161810095D01*
X256358571Y-161761714D01*
X256503714Y-161713333D01*
X256648857Y-161713333D01*
X256794000Y-161761714D01*
X256866571Y-161810095D01*
X256939143Y-161906857D01*
X256939143Y-162245523D01*
X256213429Y-161035999D02*
X256213429Y-160842476D01*
X256286000Y-160745714D01*
X256431143Y-160648952D01*
X256721429Y-160600571D01*
X257229429Y-160600571D01*
X257519714Y-160648952D01*
X257664857Y-160745714D01*
X257737429Y-160842476D01*
X257737429Y-161035999D01*
X257664857Y-161132761D01*
X257519714Y-161229523D01*
X257229429Y-161277904D01*
X256721429Y-161277904D01*
X256431143Y-161229523D01*
X256286000Y-161132761D01*
X256213429Y-161035999D01*
X256213429Y-159971618D02*
X256213429Y-159778095D01*
X256286000Y-159681333D01*
X256431143Y-159584571D01*
X256721429Y-159536190D01*
X257229429Y-159536190D01*
X257519714Y-159584571D01*
X257664857Y-159681333D01*
X257737429Y-159778095D01*
X257737429Y-159971618D01*
X257664857Y-160068380D01*
X257519714Y-160165142D01*
X257229429Y-160213523D01*
X256721429Y-160213523D01*
X256431143Y-160165142D01*
X256286000Y-160068380D01*
X256213429Y-159971618D01*
X257664857Y-159149142D02*
X257737429Y-159003999D01*
X257737429Y-158762095D01*
X257664857Y-158665333D01*
X257592286Y-158616952D01*
X257447143Y-158568571D01*
X257302000Y-158568571D01*
X257156857Y-158616952D01*
X257084286Y-158665333D01*
X257011714Y-158762095D01*
X256939143Y-158955618D01*
X256866571Y-159052380D01*
X256794000Y-159100761D01*
X256648857Y-159149142D01*
X256503714Y-159149142D01*
X256358571Y-159100761D01*
X256286000Y-159052380D01*
X256213429Y-158955618D01*
X256213429Y-158713714D01*
X256286000Y-158568571D01*
X256213429Y-158278285D02*
X256213429Y-157697714D01*
X257737429Y-157987999D02*
X256213429Y-157987999D01*
X256939143Y-157359047D02*
X256939143Y-157020381D01*
X257737429Y-156875238D02*
X257737429Y-157359047D01*
X256213429Y-157359047D01*
X256213429Y-156875238D01*
X257737429Y-155859238D02*
X257011714Y-156197904D01*
X257737429Y-156439809D02*
X256213429Y-156439809D01*
X256213429Y-156052762D01*
X256286000Y-155956000D01*
X256358571Y-155907619D01*
X256503714Y-155859238D01*
X256721429Y-155859238D01*
X256866571Y-155907619D01*
X256939143Y-155956000D01*
X257011714Y-156052762D01*
X257011714Y-156439809D01*
X257882571Y-155665714D02*
X257882571Y-154891619D01*
X256721429Y-154214286D02*
X257737429Y-154214286D01*
X256140857Y-154456190D02*
X257229429Y-154698095D01*
X257229429Y-154069143D01*
X256213429Y-153488571D02*
X256213429Y-153391810D01*
X256286000Y-153295048D01*
X256358571Y-153246667D01*
X256503714Y-153198286D01*
X256794000Y-153149905D01*
X257156857Y-153149905D01*
X257447143Y-153198286D01*
X257592286Y-153246667D01*
X257664857Y-153295048D01*
X257737429Y-153391810D01*
X257737429Y-153488571D01*
X257664857Y-153585333D01*
X257592286Y-153633714D01*
X257447143Y-153682095D01*
X257156857Y-153730476D01*
X256794000Y-153730476D01*
X256503714Y-153682095D01*
X256358571Y-153633714D01*
X256286000Y-153585333D01*
X256213429Y-153488571D01*
X257882571Y-152956381D02*
X257882571Y-152182286D01*
X256213429Y-151650096D02*
X257302000Y-151650096D01*
X257519714Y-151698476D01*
X257664857Y-151795238D01*
X257737429Y-151940381D01*
X257737429Y-152037143D01*
X256358571Y-151214667D02*
X256286000Y-151166286D01*
X256213429Y-151069524D01*
X256213429Y-150827620D01*
X256286000Y-150730858D01*
X256358571Y-150682477D01*
X256503714Y-150634096D01*
X256648857Y-150634096D01*
X256866571Y-150682477D01*
X257737429Y-151263048D01*
X257737429Y-150634096D01*
D11*
D12*
X210965627Y-136212761D02*
X210965627Y-137448290D01*
X210913859Y-137695396D01*
X210810324Y-137860133D01*
X210655021Y-137942501D01*
X210551486Y-137942501D01*
X211379768Y-136212761D02*
X212052747Y-136212761D01*
X211690374Y-136871710D01*
X211845676Y-136871710D01*
X211949212Y-136954079D01*
X212000979Y-137036447D01*
X212052747Y-137201184D01*
X212052747Y-137613027D01*
X212000979Y-137777764D01*
X211949212Y-137860133D01*
X211845676Y-137942501D01*
X211535071Y-137942501D01*
X211431535Y-137860133D01*
X211379768Y-137777764D01*
D11*
D13*
X213033429Y-164422666D02*
X213033429Y-163842095D01*
X214557429Y-164132380D02*
X213033429Y-164132380D01*
X214557429Y-163503428D02*
X213033429Y-163503428D01*
X214702571Y-163261523D02*
X214702571Y-162487428D01*
X213759143Y-161906857D02*
X213831714Y-161761714D01*
X213904286Y-161713333D01*
X214049429Y-161664952D01*
X214267143Y-161664952D01*
X214412286Y-161713333D01*
X214484857Y-161761714D01*
X214557429Y-161858476D01*
X214557429Y-162245523D01*
X213033429Y-162245523D01*
X213033429Y-161906857D01*
X213106000Y-161810095D01*
X213178571Y-161761714D01*
X213323714Y-161713333D01*
X213468857Y-161713333D01*
X213614000Y-161761714D01*
X213686571Y-161810095D01*
X213759143Y-161906857D01*
X213759143Y-162245523D01*
X213033429Y-161035999D02*
X213033429Y-160842476D01*
X213106000Y-160745714D01*
X213251143Y-160648952D01*
X213541429Y-160600571D01*
X214049429Y-160600571D01*
X214339714Y-160648952D01*
X214484857Y-160745714D01*
X214557429Y-160842476D01*
X214557429Y-161035999D01*
X214484857Y-161132761D01*
X214339714Y-161229523D01*
X214049429Y-161277904D01*
X213541429Y-161277904D01*
X213251143Y-161229523D01*
X213106000Y-161132761D01*
X213033429Y-161035999D01*
X213033429Y-159971618D02*
X213033429Y-159778095D01*
X213106000Y-159681333D01*
X213251143Y-159584571D01*
X213541429Y-159536190D01*
X214049429Y-159536190D01*
X214339714Y-159584571D01*
X214484857Y-159681333D01*
X214557429Y-159778095D01*
X214557429Y-159971618D01*
X214484857Y-160068380D01*
X214339714Y-160165142D01*
X214049429Y-160213523D01*
X213541429Y-160213523D01*
X213251143Y-160165142D01*
X213106000Y-160068380D01*
X213033429Y-159971618D01*
X214484857Y-159149142D02*
X214557429Y-159003999D01*
X214557429Y-158762095D01*
X214484857Y-158665333D01*
X214412286Y-158616952D01*
X214267143Y-158568571D01*
X214122000Y-158568571D01*
X213976857Y-158616952D01*
X213904286Y-158665333D01*
X213831714Y-158762095D01*
X213759143Y-158955618D01*
X213686571Y-159052380D01*
X213614000Y-159100761D01*
X213468857Y-159149142D01*
X213323714Y-159149142D01*
X213178571Y-159100761D01*
X213106000Y-159052380D01*
X213033429Y-158955618D01*
X213033429Y-158713714D01*
X213106000Y-158568571D01*
X213033429Y-158278285D02*
X213033429Y-157697714D01*
X214557429Y-157987999D02*
X213033429Y-157987999D01*
X213759143Y-157359047D02*
X213759143Y-157020381D01*
X214557429Y-156875238D02*
X214557429Y-157359047D01*
X213033429Y-157359047D01*
X213033429Y-156875238D01*
X214557429Y-155859238D02*
X213831714Y-156197904D01*
X214557429Y-156439809D02*
X213033429Y-156439809D01*
X213033429Y-156052762D01*
X213106000Y-155956000D01*
X213178571Y-155907619D01*
X213323714Y-155859238D01*
X213541429Y-155859238D01*
X213686571Y-155907619D01*
X213759143Y-155956000D01*
X213831714Y-156052762D01*
X213831714Y-156439809D01*
X214702571Y-155665714D02*
X214702571Y-154891619D01*
X213541429Y-154214286D02*
X214557429Y-154214286D01*
X212960857Y-154456190D02*
X214049429Y-154698095D01*
X214049429Y-154069143D01*
X213033429Y-153488571D02*
X213033429Y-153391810D01*
X213106000Y-153295048D01*
X213178571Y-153246667D01*
X213323714Y-153198286D01*
X213614000Y-153149905D01*
X213976857Y-153149905D01*
X214267143Y-153198286D01*
X214412286Y-153246667D01*
X214484857Y-153295048D01*
X214557429Y-153391810D01*
X214557429Y-153488571D01*
X214484857Y-153585333D01*
X214412286Y-153633714D01*
X214267143Y-153682095D01*
X213976857Y-153730476D01*
X213614000Y-153730476D01*
X213323714Y-153682095D01*
X213178571Y-153633714D01*
X213106000Y-153585333D01*
X213033429Y-153488571D01*
X214702571Y-152956381D02*
X214702571Y-152182286D01*
X213033429Y-151650096D02*
X214122000Y-151650096D01*
X214339714Y-151698476D01*
X214484857Y-151795238D01*
X214557429Y-151940381D01*
X214557429Y-152037143D01*
X213033429Y-151263048D02*
X213033429Y-150634096D01*
X213614000Y-150972762D01*
X213614000Y-150827620D01*
X213686571Y-150730858D01*
X213759143Y-150682477D01*
X213904286Y-150634096D01*
X214267143Y-150634096D01*
X214412286Y-150682477D01*
X214484857Y-150730858D01*
X214557429Y-150827620D01*
X214557429Y-151117905D01*
X214484857Y-151214667D01*
X214412286Y-151263048D01*
D11*
D12*
X251605627Y-136212761D02*
X251605627Y-137448290D01*
X251553859Y-137695396D01*
X251450324Y-137860133D01*
X251295021Y-137942501D01*
X251191486Y-137942501D01*
X252589212Y-136789341D02*
X252589212Y-137942501D01*
X252330374Y-136130393D02*
X252071535Y-137365921D01*
X252744515Y-137365921D01*
D11*
D13*
X253673429Y-164422666D02*
X253673429Y-163842095D01*
X255197429Y-164132380D02*
X253673429Y-164132380D01*
X255197429Y-163503428D02*
X253673429Y-163503428D01*
X255342571Y-163261523D02*
X255342571Y-162487428D01*
X254399143Y-161906857D02*
X254471714Y-161761714D01*
X254544286Y-161713333D01*
X254689429Y-161664952D01*
X254907143Y-161664952D01*
X255052286Y-161713333D01*
X255124857Y-161761714D01*
X255197429Y-161858476D01*
X255197429Y-162245523D01*
X253673429Y-162245523D01*
X253673429Y-161906857D01*
X253746000Y-161810095D01*
X253818571Y-161761714D01*
X253963714Y-161713333D01*
X254108857Y-161713333D01*
X254254000Y-161761714D01*
X254326571Y-161810095D01*
X254399143Y-161906857D01*
X254399143Y-162245523D01*
X253673429Y-161035999D02*
X253673429Y-160842476D01*
X253746000Y-160745714D01*
X253891143Y-160648952D01*
X254181429Y-160600571D01*
X254689429Y-160600571D01*
X254979714Y-160648952D01*
X255124857Y-160745714D01*
X255197429Y-160842476D01*
X255197429Y-161035999D01*
X255124857Y-161132761D01*
X254979714Y-161229523D01*
X254689429Y-161277904D01*
X254181429Y-161277904D01*
X253891143Y-161229523D01*
X253746000Y-161132761D01*
X253673429Y-161035999D01*
X253673429Y-159971618D02*
X253673429Y-159778095D01*
X253746000Y-159681333D01*
X253891143Y-159584571D01*
X254181429Y-159536190D01*
X254689429Y-159536190D01*
X254979714Y-159584571D01*
X255124857Y-159681333D01*
X255197429Y-159778095D01*
X255197429Y-159971618D01*
X255124857Y-160068380D01*
X254979714Y-160165142D01*
X254689429Y-160213523D01*
X254181429Y-160213523D01*
X253891143Y-160165142D01*
X253746000Y-160068380D01*
X253673429Y-159971618D01*
X255124857Y-159149142D02*
X255197429Y-159003999D01*
X255197429Y-158762095D01*
X255124857Y-158665333D01*
X255052286Y-158616952D01*
X254907143Y-158568571D01*
X254762000Y-158568571D01*
X254616857Y-158616952D01*
X254544286Y-158665333D01*
X254471714Y-158762095D01*
X254399143Y-158955618D01*
X254326571Y-159052380D01*
X254254000Y-159100761D01*
X254108857Y-159149142D01*
X253963714Y-159149142D01*
X253818571Y-159100761D01*
X253746000Y-159052380D01*
X253673429Y-158955618D01*
X253673429Y-158713714D01*
X253746000Y-158568571D01*
X253673429Y-158278285D02*
X253673429Y-157697714D01*
X255197429Y-157987999D02*
X253673429Y-157987999D01*
X254399143Y-157359047D02*
X254399143Y-157020381D01*
X255197429Y-156875238D02*
X255197429Y-157359047D01*
X253673429Y-157359047D01*
X253673429Y-156875238D01*
X255197429Y-155859238D02*
X254471714Y-156197904D01*
X255197429Y-156439809D02*
X253673429Y-156439809D01*
X253673429Y-156052762D01*
X253746000Y-155956000D01*
X253818571Y-155907619D01*
X253963714Y-155859238D01*
X254181429Y-155859238D01*
X254326571Y-155907619D01*
X254399143Y-155956000D01*
X254471714Y-156052762D01*
X254471714Y-156439809D01*
X255342571Y-155665714D02*
X255342571Y-154891619D01*
X254181429Y-154214286D02*
X255197429Y-154214286D01*
X253600857Y-154456190D02*
X254689429Y-154698095D01*
X254689429Y-154069143D01*
X253673429Y-153488571D02*
X253673429Y-153391810D01*
X253746000Y-153295048D01*
X253818571Y-153246667D01*
X253963714Y-153198286D01*
X254254000Y-153149905D01*
X254616857Y-153149905D01*
X254907143Y-153198286D01*
X255052286Y-153246667D01*
X255124857Y-153295048D01*
X255197429Y-153391810D01*
X255197429Y-153488571D01*
X255124857Y-153585333D01*
X255052286Y-153633714D01*
X254907143Y-153682095D01*
X254616857Y-153730476D01*
X254254000Y-153730476D01*
X253963714Y-153682095D01*
X253818571Y-153633714D01*
X253746000Y-153585333D01*
X253673429Y-153488571D01*
X255342571Y-152956381D02*
X255342571Y-152182286D01*
X253673429Y-151650096D02*
X254762000Y-151650096D01*
X254979714Y-151698476D01*
X255124857Y-151795238D01*
X255197429Y-151940381D01*
X255197429Y-152037143D01*
X254181429Y-150730858D02*
X255197429Y-150730858D01*
X253600857Y-150972762D02*
X254689429Y-151214667D01*
X254689429Y-150585715D01*
D11*
D10*
X208049905Y-170612381D02*
X208049905Y-169612381D01*
X208430858Y-169612381D01*
X208526096Y-169660000D01*
X208573715Y-169707619D01*
X208621334Y-169802857D01*
X208621334Y-169945714D01*
X208573715Y-170040952D01*
X208526096Y-170088571D01*
X208430858Y-170136190D01*
X208049905Y-170136190D01*
X209573715Y-170612381D02*
X209002286Y-170612381D01*
X209288000Y-170612381D02*
X209288000Y-169612381D01*
X209192762Y-169755238D01*
X209097524Y-169850476D01*
X209002286Y-169898095D01*
X230909905Y-170612381D02*
X230909905Y-169612381D01*
X231290858Y-169612381D01*
X231386096Y-169660000D01*
X231433715Y-169707619D01*
X231481334Y-169802857D01*
X231481334Y-169945714D01*
X231433715Y-170040952D01*
X231386096Y-170088571D01*
X231290858Y-170136190D01*
X230909905Y-170136190D01*
X231862286Y-169707619D02*
X231909905Y-169660000D01*
X232005143Y-169612381D01*
X232243239Y-169612381D01*
X232338477Y-169660000D01*
X232386096Y-169707619D01*
X232433715Y-169802857D01*
X232433715Y-169898095D01*
X232386096Y-170040952D01*
X231814667Y-170612381D01*
X232433715Y-170612381D01*
X198905905Y-122352381D02*
X198905905Y-121352381D01*
X199286858Y-121352381D01*
X199382096Y-121400000D01*
X199429715Y-121447619D01*
X199477334Y-121542857D01*
X199477334Y-121685714D01*
X199429715Y-121780952D01*
X199382096Y-121828571D01*
X199286858Y-121876190D01*
X198905905Y-121876190D01*
X199810667Y-121352381D02*
X200429715Y-121352381D01*
X200096381Y-121733333D01*
X200239239Y-121733333D01*
X200334477Y-121780952D01*
X200382096Y-121828571D01*
X200429715Y-121923810D01*
X200429715Y-122161905D01*
X200382096Y-122257143D01*
X200334477Y-122304762D01*
X200239239Y-122352381D01*
X199953524Y-122352381D01*
X199858286Y-122304762D01*
X199810667Y-122257143D01*
X225829905Y-122352381D02*
X225829905Y-121352381D01*
X226210858Y-121352381D01*
X226306096Y-121400000D01*
X226353715Y-121447619D01*
X226401334Y-121542857D01*
X226401334Y-121685714D01*
X226353715Y-121780952D01*
X226306096Y-121828571D01*
X226210858Y-121876190D01*
X225829905Y-121876190D01*
X227258477Y-121685714D02*
X227258477Y-122352381D01*
X227020381Y-121304762D02*
X226782286Y-122019048D01*
X227401334Y-122019048D01*
X194079905Y-172664381D02*
X194079905Y-171664381D01*
X194460858Y-171664381D01*
X194556096Y-171712000D01*
X194603715Y-171759619D01*
X194651334Y-171854857D01*
X194651334Y-171997714D01*
X194603715Y-172092952D01*
X194556096Y-172140571D01*
X194460858Y-172188190D01*
X194079905Y-172188190D01*
X195556096Y-171664381D02*
X195079905Y-171664381D01*
X195032286Y-172140571D01*
X195079905Y-172092952D01*
X195175143Y-172045333D01*
X195413239Y-172045333D01*
X195508477Y-172092952D01*
X195556096Y-172140571D01*
X195603715Y-172235810D01*
X195603715Y-172473905D01*
X195556096Y-172569143D01*
X195508477Y-172616762D01*
X195413239Y-172664381D01*
X195175143Y-172664381D01*
X195079905Y-172616762D01*
X195032286Y-172569143D01*
X246149905Y-167584381D02*
X246149905Y-166584381D01*
X246530858Y-166584381D01*
X246626096Y-166632000D01*
X246673715Y-166679619D01*
X246721334Y-166774857D01*
X246721334Y-166917714D01*
X246673715Y-167012952D01*
X246626096Y-167060571D01*
X246530858Y-167108190D01*
X246149905Y-167108190D01*
X247578477Y-166584381D02*
X247388000Y-166584381D01*
X247292762Y-166632000D01*
X247245143Y-166679619D01*
X247149905Y-166822476D01*
X247102286Y-167012952D01*
X247102286Y-167393905D01*
X247149905Y-167489143D01*
X247197524Y-167536762D01*
X247292762Y-167584381D01*
X247483239Y-167584381D01*
X247578477Y-167536762D01*
X247626096Y-167489143D01*
X247673715Y-167393905D01*
X247673715Y-167155810D01*
X247626096Y-167060571D01*
X247578477Y-167012952D01*
X247483239Y-166965333D01*
X247292762Y-166965333D01*
X247197524Y-167012952D01*
X247149905Y-167060571D01*
X247102286Y-167155810D01*
X195349905Y-124404381D02*
X195349905Y-123404381D01*
X195730858Y-123404381D01*
X195826096Y-123452000D01*
X195873715Y-123499619D01*
X195921334Y-123594857D01*
X195921334Y-123737714D01*
X195873715Y-123832952D01*
X195826096Y-123880571D01*
X195730858Y-123928190D01*
X195349905Y-123928190D01*
X196254667Y-123404381D02*
X196921334Y-123404381D01*
X196492762Y-124404381D01*
X246149905Y-139644381D02*
X246149905Y-138644381D01*
X246530858Y-138644381D01*
X246626096Y-138692000D01*
X246673715Y-138739619D01*
X246721334Y-138834857D01*
X246721334Y-138977714D01*
X246673715Y-139072952D01*
X246626096Y-139120571D01*
X246530858Y-139168190D01*
X246149905Y-139168190D01*
X247292762Y-139072952D02*
X247197524Y-139025333D01*
X247149905Y-138977714D01*
X247102286Y-138882476D01*
X247102286Y-138834857D01*
X247149905Y-138739619D01*
X247197524Y-138692000D01*
X247292762Y-138644381D01*
X247483239Y-138644381D01*
X247578477Y-138692000D01*
X247626096Y-138739619D01*
X247673715Y-138834857D01*
X247673715Y-138882476D01*
X247626096Y-138977714D01*
X247578477Y-139025333D01*
X247483239Y-139072952D01*
X247292762Y-139072952D01*
X247197524Y-139120571D01*
X247149905Y-139168190D01*
X247102286Y-139263429D01*
X247102286Y-139453905D01*
X247149905Y-139549143D01*
X247197524Y-139596762D01*
X247292762Y-139644381D01*
X247483239Y-139644381D01*
X247578477Y-139596762D01*
X247626096Y-139549143D01*
X247673715Y-139453905D01*
X247673715Y-139263429D01*
X247626096Y-139168190D01*
X247578477Y-139120571D01*
X247483239Y-139072952D01*
X243736905Y-142672381D02*
X243736905Y-141672381D01*
X244117858Y-141672381D01*
X244213096Y-141720000D01*
X244260715Y-141767619D01*
X244308334Y-141862857D01*
X244308334Y-142005714D01*
X244260715Y-142100952D01*
X244213096Y-142148571D01*
X244117858Y-142196190D01*
X243736905Y-142196190D01*
X244784524Y-142672381D02*
X244975000Y-142672381D01*
X245070239Y-142624762D01*
X245117858Y-142577143D01*
X245213096Y-142434286D01*
X245260715Y-142243810D01*
X245260715Y-141862857D01*
X245213096Y-141767619D01*
X245165477Y-141720000D01*
X245070239Y-141672381D01*
X244879762Y-141672381D01*
X244784524Y-141720000D01*
X244736905Y-141767619D01*
X244689286Y-141862857D01*
X244689286Y-142100952D01*
X244736905Y-142196190D01*
X244784524Y-142243810D01*
X244879762Y-142291429D01*
X245070239Y-142291429D01*
X245165477Y-142243810D01*
X245213096Y-142196190D01*
X245260715Y-142100952D01*
X193885143Y-183570476D02*
X193932762Y-183618095D01*
X193980381Y-183760952D01*
X193980381Y-183856190D01*
X193932762Y-183999048D01*
X193837524Y-184094286D01*
X193742286Y-184141905D01*
X193551810Y-184189524D01*
X193408952Y-184189524D01*
X193218476Y-184141905D01*
X193123238Y-184094286D01*
X193028000Y-183999048D01*
X192980381Y-183856190D01*
X192980381Y-183760952D01*
X193028000Y-183618095D01*
X193075619Y-183570476D01*
X193980381Y-183141905D02*
X192980381Y-183141905D01*
X193980381Y-182570476D01*
X192980381Y-182570476D01*
X192980381Y-182189524D02*
X192980381Y-181522857D01*
X193980381Y-181951429D01*
X193885143Y-123086666D02*
X193932762Y-123134285D01*
X193980381Y-123277142D01*
X193980381Y-123372380D01*
X193932762Y-123515238D01*
X193837524Y-123610476D01*
X193742286Y-123658095D01*
X193551810Y-123705714D01*
X193408952Y-123705714D01*
X193218476Y-123658095D01*
X193123238Y-123610476D01*
X193028000Y-123515238D01*
X192980381Y-123372380D01*
X192980381Y-123277142D01*
X193028000Y-123134285D01*
X193075619Y-123086666D01*
X193980381Y-122658095D02*
X192980381Y-122658095D01*
X193980381Y-122086666D01*
X192980381Y-122086666D01*
X193980381Y-121086666D02*
X193980381Y-121658095D01*
X193980381Y-121372381D02*
X192980381Y-121372381D01*
X193123238Y-121467619D01*
X193218476Y-121562857D01*
X193266095Y-121658095D01*
X192980381Y-120467619D02*
X192980381Y-120372380D01*
X193028000Y-120277142D01*
X193075619Y-120229523D01*
X193170857Y-120181904D01*
X193361333Y-120134285D01*
X193599429Y-120134285D01*
X193789905Y-120181904D01*
X193885143Y-120229523D01*
X193932762Y-120277142D01*
X193980381Y-120372380D01*
X193980381Y-120467619D01*
X193932762Y-120562857D01*
X193885143Y-120610476D01*
X193789905Y-120658095D01*
X193599429Y-120705714D01*
X193361333Y-120705714D01*
X193170857Y-120658095D01*
X193075619Y-120610476D01*
X193028000Y-120562857D01*
X192980381Y-120467619D01*
X258778476Y-116272381D02*
X259445143Y-117272381D01*
X259445143Y-116272381D02*
X258778476Y-117272381D01*
X260349905Y-117272381D02*
X259778476Y-117272381D01*
X260064190Y-117272381D02*
X260064190Y-116272381D01*
X259968952Y-116415238D01*
X259873714Y-116510476D01*
X259778476Y-116558095D01*
M02*
