M48
;DRILL file {KiCad 4.0.2-stable} date 12/8/2016 1:58:24 PM
;FORMAT={-:-/ absolute / inch / decimal}
FMAT,2
INCH,TZ
T1C0.025
T2C0.032
T3C0.040
T4C0.120
%
G90
G05
M72
T1
X8.4567Y-5.1109
X8.62Y-5.5425
X8.7197Y-6.1264
X8.7937Y-5.5058
X8.8078Y-4.9382
X8.8367Y-5.65
X8.9274Y-5.7187
X8.975Y-5.8659
X9.0397Y-6.2299
X9.1243Y-5.4621
X9.1743Y-6.0633
X9.2338Y-5.8996
X9.413Y-5.5497
X9.4534Y-5.6199
X9.5142Y-4.9209
X9.5195Y-5.6661
X9.9319Y-6.673
X9.9659Y-6.629
X9.9748Y-6.4377
X10.0181Y-6.6856
X10.1075Y-6.3025
X10.1489Y-5.6445
T2
X8.22Y-5.5
X8.22Y-5.6
X8.22Y-5.7
X8.22Y-5.8
X8.22Y-5.9
X8.22Y-6.
X8.22Y-6.1
X8.22Y-6.2
X8.22Y-6.3
X8.22Y-6.4
X8.32Y-5.5
X8.32Y-5.6
X8.32Y-5.7
X8.32Y-5.8
X8.32Y-5.9
X8.32Y-6.
X8.32Y-6.1
X8.32Y-6.2
X8.32Y-6.3
X8.32Y-6.4
X9.92Y-5.5
X9.92Y-5.6
X9.92Y-5.7
X9.92Y-5.8
X9.92Y-5.9
X9.92Y-6.
X9.92Y-6.1
X9.92Y-6.2
X9.92Y-6.3
X9.92Y-6.4
X10.02Y-5.5
X10.02Y-5.6
X10.02Y-5.7
X10.02Y-5.8
X10.02Y-5.9
X10.02Y-6.
X10.02Y-6.1
X10.02Y-6.2
X10.02Y-6.3
X10.02Y-6.4
T3
X7.82Y-4.7
X7.82Y-4.8
X7.82Y-7.1
X7.82Y-7.2
X7.86Y-5.
X7.92Y-4.7
X7.92Y-4.8
X7.92Y-7.1
X7.92Y-7.2
X7.96Y-5.
X8.02Y-4.7
X8.02Y-4.8
X8.02Y-7.1
X8.02Y-7.2
X8.06Y-5.
X8.12Y-4.7
X8.12Y-4.8
X8.12Y-7.1
X8.12Y-7.2
X8.16Y-5.
X8.22Y-4.7
X8.22Y-4.8
X8.22Y-6.9
X8.22Y-7.1
X8.22Y-7.2
X8.26Y-5.
X8.32Y-4.7
X8.32Y-4.8
X8.32Y-6.9
X8.32Y-7.1
X8.32Y-7.2
X8.36Y-5.
X8.42Y-4.7
X8.42Y-4.8
X8.42Y-6.9
X8.42Y-7.1
X8.42Y-7.2
X8.46Y-5.
X8.52Y-4.7
X8.52Y-4.8
X8.52Y-6.9
X8.52Y-7.1
X8.52Y-7.2
X8.56Y-5.
X8.62Y-4.7
X8.62Y-4.8
X8.62Y-6.9
X8.62Y-7.1
X8.62Y-7.2
X8.66Y-5.
X8.72Y-4.7
X8.72Y-4.8
X8.72Y-6.9
X8.72Y-7.1
X8.72Y-7.2
X8.76Y-5.
X8.82Y-4.7
X8.82Y-4.8
X8.82Y-6.9
X8.82Y-7.1
X8.82Y-7.2
X8.92Y-4.7
X8.92Y-4.8
X8.92Y-5.
X8.92Y-6.9
X8.92Y-7.1
X8.92Y-7.2
X9.02Y-4.7
X9.02Y-4.8
X9.02Y-5.
X9.02Y-7.1
X9.02Y-7.2
X9.12Y-4.7
X9.12Y-4.8
X9.12Y-5.
X9.12Y-6.9
X9.12Y-7.1
X9.12Y-7.2
X9.22Y-4.7
X9.22Y-4.8
X9.22Y-5.
X9.22Y-6.9
X9.22Y-7.1
X9.22Y-7.2
X9.32Y-4.7
X9.32Y-4.8
X9.32Y-5.
X9.32Y-6.9
X9.32Y-7.1
X9.32Y-7.2
X9.42Y-4.7
X9.42Y-4.8
X9.42Y-5.
X9.42Y-6.9
X9.42Y-7.1
X9.42Y-7.2
X9.52Y-4.7
X9.52Y-4.8
X9.52Y-5.
X9.52Y-6.9
X9.52Y-7.1
X9.52Y-7.2
X9.62Y-4.7
X9.62Y-4.8
X9.62Y-5.
X9.62Y-6.9
X9.62Y-7.1
X9.62Y-7.2
X9.625Y-5.8
X9.625Y-5.9
X9.625Y-6.
X9.725Y-5.8
X9.725Y-5.9
X9.725Y-6.
X10.22Y-4.8
X10.22Y-4.9
X10.22Y-5.
X10.22Y-5.1
X10.22Y-5.2
X10.22Y-5.3
X10.22Y-5.4
X10.22Y-5.5
X10.22Y-5.6
X10.22Y-5.7
X10.22Y-6.2
X10.22Y-6.3
X10.22Y-6.4
X10.22Y-6.5
X10.22Y-6.6
X10.22Y-6.7
X10.22Y-6.8
X10.22Y-6.9
X10.22Y-7.
X10.22Y-7.1
X10.32Y-4.8
X10.32Y-4.9
X10.32Y-5.
X10.32Y-5.1
X10.32Y-5.2
X10.32Y-5.3
X10.32Y-5.4
X10.32Y-5.5
X10.32Y-5.6
X10.32Y-5.7
X10.32Y-6.2
X10.32Y-6.3
X10.32Y-6.4
X10.32Y-6.5
X10.32Y-6.6
X10.32Y-6.7
X10.32Y-6.8
X10.32Y-6.9
X10.32Y-7.
X10.32Y-7.1
T4
X7.67Y-6.9
X7.72Y-5.
X9.72Y-5.6
X9.72Y-6.7
T0
M30
