G04 #@! TF.FileFunction,Copper,L1,Top,Signal*
%FSLAX46Y46*%
G04 Gerber Fmt 4.6, Leading zero omitted, Abs format (unit mm)*
G04 Created by KiCad (PCBNEW 4.0.2-stable) date 12/8/2016 2:04:04 PM*
%MOMM*%
G01*
G04 APERTURE LIST*
%ADD10C,0.150000*%
%ADD11R,1.727200X1.727200*%
%ADD12O,1.727200X1.727200*%
%ADD13R,1.397000X1.397000*%
%ADD14C,1.397000*%
%ADD15O,1.727200X2.032000*%
%ADD16C,4.064000*%
%ADD17C,0.889000*%
%ADD18C,0.254000*%
G04 APERTURE END LIST*
D10*
D11*
X259588000Y-157480000D03*
D12*
X262128000Y-157480000D03*
X259588000Y-160020000D03*
X262128000Y-160020000D03*
X259588000Y-162560000D03*
X262128000Y-162560000D03*
X259588000Y-165100000D03*
X262128000Y-165100000D03*
X259588000Y-167640000D03*
X262128000Y-167640000D03*
X259588000Y-170180000D03*
X262128000Y-170180000D03*
X259588000Y-172720000D03*
X262128000Y-172720000D03*
X259588000Y-175260000D03*
X262128000Y-175260000D03*
X259588000Y-177800000D03*
X262128000Y-177800000D03*
X259588000Y-180340000D03*
X262128000Y-180340000D03*
D13*
X208788000Y-139700000D03*
D14*
X208788000Y-142240000D03*
X208788000Y-144780000D03*
X208788000Y-147320000D03*
X208788000Y-149860000D03*
X208788000Y-152400000D03*
X208788000Y-154940000D03*
X208788000Y-157480000D03*
X208788000Y-160020000D03*
X208788000Y-162560000D03*
D13*
X254508000Y-139700000D03*
D14*
X254508000Y-142240000D03*
X254508000Y-144780000D03*
X254508000Y-147320000D03*
X254508000Y-149860000D03*
X254508000Y-152400000D03*
X254508000Y-154940000D03*
X254508000Y-157480000D03*
X254508000Y-160020000D03*
X254508000Y-162560000D03*
D13*
X211328000Y-139700000D03*
D14*
X211328000Y-142240000D03*
X211328000Y-144780000D03*
X211328000Y-147320000D03*
X211328000Y-149860000D03*
X211328000Y-152400000D03*
X211328000Y-154940000D03*
X211328000Y-157480000D03*
X211328000Y-160020000D03*
X211328000Y-162560000D03*
D13*
X251968000Y-139700000D03*
D14*
X251968000Y-142240000D03*
X251968000Y-144780000D03*
X251968000Y-147320000D03*
X251968000Y-149860000D03*
X251968000Y-152400000D03*
X251968000Y-154940000D03*
X251968000Y-157480000D03*
X251968000Y-160020000D03*
X251968000Y-162560000D03*
D15*
X208788000Y-175260000D03*
X211328000Y-175260000D03*
X213868000Y-175260000D03*
X216408000Y-175260000D03*
X218948000Y-175260000D03*
X221488000Y-175260000D03*
X224028000Y-175260000D03*
X226568000Y-175260000D03*
X231648000Y-175260000D03*
X234188000Y-175260000D03*
X236728000Y-175260000D03*
X239268000Y-175260000D03*
X241808000Y-175260000D03*
X244348000Y-175260000D03*
X199644000Y-127000000D03*
X202184000Y-127000000D03*
X204724000Y-127000000D03*
X207264000Y-127000000D03*
X209804000Y-127000000D03*
X212344000Y-127000000D03*
X214884000Y-127000000D03*
X217424000Y-127000000D03*
X219964000Y-127000000D03*
X222504000Y-127000000D03*
X226568000Y-127000000D03*
X229108000Y-127000000D03*
X231648000Y-127000000D03*
X234188000Y-127000000D03*
X236728000Y-127000000D03*
X239268000Y-127000000D03*
X241808000Y-127000000D03*
X244348000Y-127000000D03*
D16*
X194818000Y-175260000D03*
X246888000Y-170180000D03*
X196088000Y-127000000D03*
X246888000Y-142240000D03*
D11*
X244475000Y-147320000D03*
D12*
X247015000Y-147320000D03*
X244475000Y-149860000D03*
X247015000Y-149860000D03*
X244475000Y-152400000D03*
X247015000Y-152400000D03*
D11*
X198628000Y-182880000D03*
D12*
X198628000Y-180340000D03*
X201168000Y-182880000D03*
X201168000Y-180340000D03*
X203708000Y-182880000D03*
X203708000Y-180340000D03*
X206248000Y-182880000D03*
X206248000Y-180340000D03*
X208788000Y-182880000D03*
X208788000Y-180340000D03*
X211328000Y-182880000D03*
X211328000Y-180340000D03*
X213868000Y-182880000D03*
X213868000Y-180340000D03*
X216408000Y-182880000D03*
X216408000Y-180340000D03*
X218948000Y-182880000D03*
X218948000Y-180340000D03*
X221488000Y-182880000D03*
X221488000Y-180340000D03*
X224028000Y-182880000D03*
X224028000Y-180340000D03*
X226568000Y-182880000D03*
X226568000Y-180340000D03*
X229108000Y-182880000D03*
X229108000Y-180340000D03*
X231648000Y-182880000D03*
X231648000Y-180340000D03*
X234188000Y-182880000D03*
X234188000Y-180340000D03*
X236728000Y-182880000D03*
X236728000Y-180340000D03*
X239268000Y-182880000D03*
X239268000Y-180340000D03*
X241808000Y-182880000D03*
X241808000Y-180340000D03*
X244348000Y-182880000D03*
X244348000Y-180340000D03*
D11*
X198628000Y-121920000D03*
D12*
X198628000Y-119380000D03*
X201168000Y-121920000D03*
X201168000Y-119380000D03*
X203708000Y-121920000D03*
X203708000Y-119380000D03*
X206248000Y-121920000D03*
X206248000Y-119380000D03*
X208788000Y-121920000D03*
X208788000Y-119380000D03*
X211328000Y-121920000D03*
X211328000Y-119380000D03*
X213868000Y-121920000D03*
X213868000Y-119380000D03*
X216408000Y-121920000D03*
X216408000Y-119380000D03*
X218948000Y-121920000D03*
X218948000Y-119380000D03*
X221488000Y-121920000D03*
X221488000Y-119380000D03*
X224028000Y-121920000D03*
X224028000Y-119380000D03*
X226568000Y-121920000D03*
X226568000Y-119380000D03*
X229108000Y-121920000D03*
X229108000Y-119380000D03*
X231648000Y-121920000D03*
X231648000Y-119380000D03*
X234188000Y-121920000D03*
X234188000Y-119380000D03*
X236728000Y-121920000D03*
X236728000Y-119380000D03*
X239268000Y-121920000D03*
X239268000Y-119380000D03*
X241808000Y-121920000D03*
X241808000Y-119380000D03*
X244348000Y-121920000D03*
X244348000Y-119380000D03*
D11*
X259588000Y-121920000D03*
D12*
X262128000Y-121920000D03*
X259588000Y-124460000D03*
X262128000Y-124460000D03*
X259588000Y-127000000D03*
X262128000Y-127000000D03*
X259588000Y-129540000D03*
X262128000Y-129540000D03*
X259588000Y-132080000D03*
X262128000Y-132080000D03*
X259588000Y-134620000D03*
X262128000Y-134620000D03*
X259588000Y-137160000D03*
X262128000Y-137160000D03*
X259588000Y-139700000D03*
X262128000Y-139700000D03*
X259588000Y-142240000D03*
X262128000Y-142240000D03*
X259588000Y-144780000D03*
X262128000Y-144780000D03*
D17*
X218948000Y-140779800D03*
X256730800Y-160084300D03*
X253360600Y-163516500D03*
X229609000Y-158239600D03*
X224451800Y-143510000D03*
X226756400Y-145255900D03*
X234538100Y-149848600D03*
X253133400Y-168376600D03*
X239089100Y-140962300D03*
X223717100Y-125430600D03*
X221480900Y-155609900D03*
X252270800Y-169495100D03*
X214801400Y-129817800D03*
X257783100Y-143369200D03*
X241659800Y-124990100D03*
X231757400Y-138736500D03*
X223360900Y-139846900D03*
X227965500Y-148995000D03*
X240115400Y-142744500D03*
X241794700Y-143919600D03*
X233026700Y-154008200D03*
X254460000Y-169815400D03*
D18*
X247015000Y-147320000D02*
X247015000Y-146075100D01*
X211328000Y-139700000D02*
X212407800Y-139700000D01*
X213487600Y-140779800D02*
X212407800Y-139700000D01*
X218948000Y-140779800D02*
X213487600Y-140779800D01*
X246183600Y-146075100D02*
X247015000Y-146075100D01*
X239670800Y-139562300D02*
X246183600Y-146075100D01*
X231415400Y-139562300D02*
X239670800Y-139562300D01*
X230866500Y-139013400D02*
X231415400Y-139562300D01*
X220714400Y-139013400D02*
X230866500Y-139013400D01*
X218948000Y-140779800D02*
X220714400Y-139013400D01*
X260858000Y-178291900D02*
X260858000Y-176530000D01*
X260054800Y-179095100D02*
X260858000Y-178291900D01*
X259588000Y-179095100D02*
X260054800Y-179095100D01*
X221488000Y-175260000D02*
X224028000Y-175260000D01*
X253433800Y-176530000D02*
X260858000Y-176530000D01*
X253306400Y-176657400D02*
X253433800Y-176530000D01*
X226047900Y-176657400D02*
X253306400Y-176657400D01*
X225272900Y-175882400D02*
X226047900Y-176657400D01*
X225272900Y-175260000D02*
X225272900Y-175882400D01*
X259588000Y-180340000D02*
X259588000Y-179095100D01*
X224028000Y-175260000D02*
X225272900Y-175260000D01*
X263922000Y-159274000D02*
X262128000Y-157480000D01*
X263922000Y-172732000D02*
X263922000Y-159274000D01*
X262664000Y-173990000D02*
X263922000Y-172732000D01*
X261635800Y-173990000D02*
X262664000Y-173990000D01*
X260858000Y-174767800D02*
X261635800Y-173990000D01*
X260858000Y-176530000D02*
X260858000Y-174767800D01*
X247015000Y-152400000D02*
X248259900Y-152400000D01*
X262128000Y-157480000D02*
X260883100Y-157480000D01*
X259588000Y-152076400D02*
X258019500Y-153644900D01*
X259588000Y-144780000D02*
X259588000Y-152076400D01*
X249504800Y-153644900D02*
X258019500Y-153644900D01*
X248259900Y-152400000D02*
X249504800Y-153644900D01*
X260883100Y-156508500D02*
X260883100Y-157480000D01*
X258019500Y-153644900D02*
X260883100Y-156508500D01*
X216408000Y-175260000D02*
X217652900Y-175260000D01*
X262128000Y-180340000D02*
X260883100Y-180340000D01*
X260883100Y-180855800D02*
X260883100Y-180340000D01*
X260139100Y-181599800D02*
X260883100Y-180855800D01*
X247700000Y-181599800D02*
X260139100Y-181599800D01*
X245165100Y-179064900D02*
X247700000Y-181599800D01*
X220835400Y-179064900D02*
X245165100Y-179064900D01*
X217652900Y-175882400D02*
X220835400Y-179064900D01*
X217652900Y-175260000D02*
X217652900Y-175882400D01*
X213868000Y-175260000D02*
X215112900Y-175260000D01*
X244475000Y-152400000D02*
X244475000Y-153644900D01*
X244475000Y-153644900D02*
X244237800Y-153882100D01*
X224753900Y-173366000D02*
X244237800Y-153882100D01*
X216338700Y-173366000D02*
X224753900Y-173366000D01*
X215112900Y-174591800D02*
X216338700Y-173366000D01*
X215112900Y-175260000D02*
X215112900Y-174591800D01*
X255702900Y-161112200D02*
X256730800Y-160084300D01*
X251467900Y-161112200D02*
X255702900Y-161112200D01*
X244237800Y-153882100D02*
X251467900Y-161112200D01*
X231648000Y-175260000D02*
X232892900Y-175260000D01*
X253058200Y-163818900D02*
X253360600Y-163516500D01*
X243711600Y-163818900D02*
X253058200Y-163818900D01*
X232892900Y-174637600D02*
X243711600Y-163818900D01*
X232892900Y-175260000D02*
X232892900Y-174637600D01*
X257581500Y-159258400D02*
X258343100Y-160020000D01*
X255269600Y-159258400D02*
X257581500Y-159258400D01*
X254508000Y-160020000D02*
X255269600Y-159258400D01*
X259588000Y-160020000D02*
X258343100Y-160020000D01*
X262128000Y-160020000D02*
X260883100Y-160020000D01*
X260883100Y-160486900D02*
X260883100Y-160020000D01*
X260105100Y-161264900D02*
X260883100Y-160486900D01*
X257367200Y-161264900D02*
X260105100Y-161264900D01*
X256072100Y-162560000D02*
X257367200Y-161264900D01*
X254508000Y-162560000D02*
X256072100Y-162560000D01*
X234188000Y-175260000D02*
X235432900Y-175260000D01*
X254508000Y-163548600D02*
X254508000Y-162560000D01*
X253411900Y-164644700D02*
X254508000Y-163548600D01*
X245425800Y-164644700D02*
X253411900Y-164644700D01*
X235432900Y-174637600D02*
X245425800Y-164644700D01*
X235432900Y-175260000D02*
X235432900Y-174637600D01*
X236728000Y-175260000D02*
X237972900Y-175260000D01*
X259588000Y-162560000D02*
X258343100Y-162560000D01*
X255665600Y-165237500D02*
X258343100Y-162560000D01*
X247373000Y-165237500D02*
X255665600Y-165237500D01*
X237972900Y-174637600D02*
X247373000Y-165237500D01*
X237972900Y-175260000D02*
X237972900Y-174637600D01*
X210058000Y-153670000D02*
X208788000Y-152400000D01*
X225039400Y-153670000D02*
X210058000Y-153670000D01*
X229609000Y-158239600D02*
X225039400Y-153670000D01*
X239268000Y-175260000D02*
X240512900Y-175260000D01*
X262128000Y-162560000D02*
X260883100Y-162560000D01*
X240512900Y-174637600D02*
X240512900Y-175260000D01*
X242215100Y-172935400D02*
X240512900Y-174637600D01*
X247580300Y-172935400D02*
X242215100Y-172935400D01*
X252192600Y-168323100D02*
X247580300Y-172935400D01*
X252192600Y-168149600D02*
X252192600Y-168323100D01*
X253723700Y-166618500D02*
X252192600Y-168149600D01*
X255402000Y-166618500D02*
X253723700Y-166618500D01*
X258190500Y-163830000D02*
X255402000Y-166618500D01*
X260128900Y-163830000D02*
X258190500Y-163830000D01*
X260883100Y-163075800D02*
X260128900Y-163830000D01*
X260883100Y-162560000D02*
X260883100Y-163075800D01*
X210058000Y-143510000D02*
X224451800Y-143510000D01*
X208788000Y-142240000D02*
X210058000Y-143510000D01*
X211803900Y-145255900D02*
X226756400Y-145255900D01*
X211328000Y-144780000D02*
X211803900Y-145255900D01*
X222504000Y-127000000D02*
X223748900Y-127000000D01*
X225175700Y-125573200D02*
X223748900Y-127000000D01*
X232153100Y-125573200D02*
X225175700Y-125573200D01*
X232917900Y-126338000D02*
X232153100Y-125573200D01*
X232917900Y-127650200D02*
X232917900Y-126338000D01*
X244073400Y-138805700D02*
X232917900Y-127650200D01*
X247730900Y-138805700D02*
X244073400Y-138805700D01*
X251165200Y-142240000D02*
X247730900Y-138805700D01*
X251968000Y-142240000D02*
X251165200Y-142240000D01*
X246015200Y-144780000D02*
X251968000Y-144780000D01*
X233001300Y-131766100D02*
X246015200Y-144780000D01*
X231956600Y-131766100D02*
X233001300Y-131766100D01*
X227812900Y-127622400D02*
X231956600Y-131766100D01*
X227812900Y-127000000D02*
X227812900Y-127622400D01*
X226568000Y-127000000D02*
X227812900Y-127000000D01*
X253084400Y-146203600D02*
X251968000Y-147320000D01*
X253084400Y-144365600D02*
X253084400Y-146203600D01*
X252418900Y-143700100D02*
X253084400Y-144365600D01*
X251784700Y-143700100D02*
X252418900Y-143700100D01*
X247398600Y-139314000D02*
X251784700Y-143700100D01*
X242564700Y-139314000D02*
X247398600Y-139314000D01*
X231648000Y-128397300D02*
X242564700Y-139314000D01*
X231648000Y-127000000D02*
X231648000Y-128397300D01*
X259588000Y-167640000D02*
X258343100Y-167640000D01*
X212882200Y-149848600D02*
X234538100Y-149848600D01*
X211796200Y-148762600D02*
X212882200Y-149848600D01*
X209885400Y-148762600D02*
X211796200Y-148762600D01*
X208788000Y-149860000D02*
X209885400Y-148762600D01*
X239538300Y-140962300D02*
X239089100Y-140962300D01*
X240941200Y-142365200D02*
X239538300Y-140962300D01*
X240941200Y-143445500D02*
X240941200Y-142365200D01*
X234538100Y-149848600D02*
X240941200Y-143445500D01*
X253870000Y-167640000D02*
X253133400Y-168376600D01*
X258343100Y-167640000D02*
X253870000Y-167640000D01*
X224092700Y-125055000D02*
X223717100Y-125430600D01*
X234783000Y-125055000D02*
X224092700Y-125055000D01*
X236728000Y-127000000D02*
X234783000Y-125055000D01*
X210058000Y-156210000D02*
X208788000Y-157480000D01*
X220880800Y-156210000D02*
X210058000Y-156210000D01*
X221480900Y-155609900D02*
X220880800Y-156210000D01*
X262128000Y-167640000D02*
X260883100Y-167640000D01*
X260883100Y-168155800D02*
X260883100Y-167640000D01*
X260128900Y-168910000D02*
X260883100Y-168155800D01*
X254197700Y-168910000D02*
X260128900Y-168910000D01*
X253612600Y-169495100D02*
X254197700Y-168910000D01*
X252270800Y-169495100D02*
X253612600Y-169495100D01*
X253058200Y-140790200D02*
X254508000Y-142240000D01*
X250486600Y-140790200D02*
X253058200Y-140790200D01*
X243119100Y-133422700D02*
X250486600Y-140790200D01*
X241233200Y-133422700D02*
X243119100Y-133422700D01*
X235432900Y-127622400D02*
X241233200Y-133422700D01*
X235432900Y-127000000D02*
X235432900Y-127622400D01*
X234188000Y-127000000D02*
X235432900Y-127000000D01*
X217424000Y-127195200D02*
X214801400Y-129817800D01*
X217424000Y-127000000D02*
X217424000Y-127195200D01*
X218948000Y-121920000D02*
X218948000Y-123164900D01*
X251968000Y-139700000D02*
X250888200Y-139700000D01*
X218948000Y-123164900D02*
X218948000Y-124308200D01*
X217653500Y-125602700D02*
X218948000Y-124308200D01*
X217424000Y-125602700D02*
X217653500Y-125602700D01*
X239587600Y-128399400D02*
X250888200Y-139700000D01*
X238721800Y-128399400D02*
X239587600Y-128399400D01*
X237998000Y-127675600D02*
X238721800Y-128399400D01*
X237998000Y-126312400D02*
X237998000Y-127675600D01*
X235993800Y-124308200D02*
X237998000Y-126312400D01*
X218948000Y-124308200D02*
X235993800Y-124308200D01*
X217424000Y-127000000D02*
X217424000Y-125602700D01*
X214884000Y-124688900D02*
X214884000Y-127000000D01*
X216408000Y-123164900D02*
X214884000Y-124688900D01*
X216408000Y-121920000D02*
X216408000Y-123164900D01*
X198628000Y-182880000D02*
X199872900Y-182880000D01*
X262128000Y-142240000D02*
X262128000Y-143484900D01*
X262643800Y-143484900D02*
X262128000Y-143484900D01*
X264941100Y-145782200D02*
X262643800Y-143484900D01*
X264941100Y-180036200D02*
X264941100Y-145782200D01*
X260845800Y-184131500D02*
X264941100Y-180036200D01*
X200657600Y-184131500D02*
X260845800Y-184131500D01*
X199872900Y-183346800D02*
X200657600Y-184131500D01*
X199872900Y-182880000D02*
X199872900Y-183346800D01*
X259072200Y-143484900D02*
X259588000Y-143484900D01*
X256100100Y-146457000D02*
X259072200Y-143484900D01*
X256100100Y-147292500D02*
X256100100Y-146457000D01*
X254802600Y-148590000D02*
X256100100Y-147292500D01*
X241718200Y-148590000D02*
X254802600Y-148590000D01*
X231168200Y-159140000D02*
X241718200Y-148590000D01*
X220606100Y-159140000D02*
X231168200Y-159140000D01*
X199872900Y-179873200D02*
X220606100Y-159140000D01*
X199872900Y-180340000D02*
X199872900Y-179873200D01*
X198628000Y-180340000D02*
X199872900Y-180340000D01*
X259588000Y-142240000D02*
X259588000Y-143484900D01*
X262128000Y-139700000D02*
X262128000Y-140944900D01*
X262643800Y-140944900D02*
X262128000Y-140944900D01*
X265449400Y-143750500D02*
X262643800Y-140944900D01*
X265449400Y-180246700D02*
X265449400Y-143750500D01*
X261031800Y-184664300D02*
X265449400Y-180246700D01*
X198143700Y-184664300D02*
X261031800Y-184664300D01*
X197383000Y-183903600D02*
X198143700Y-184664300D01*
X197383000Y-181848100D02*
X197383000Y-183903600D01*
X197596100Y-181635000D02*
X197383000Y-181848100D01*
X199923000Y-181635000D02*
X197596100Y-181635000D01*
X201168000Y-182880000D02*
X199923000Y-181635000D01*
X201168000Y-121920000D02*
X199923100Y-121920000D01*
X262128000Y-134620000D02*
X263372900Y-134620000D01*
X263939100Y-134053800D02*
X263372900Y-134620000D01*
X263939100Y-124506300D02*
X263939100Y-134053800D01*
X262622800Y-123190000D02*
X263939100Y-124506300D01*
X257058800Y-123190000D02*
X262622800Y-123190000D01*
X249915700Y-116046900D02*
X257058800Y-123190000D01*
X200146500Y-116046900D02*
X249915700Y-116046900D01*
X197333100Y-118860300D02*
X200146500Y-116046900D01*
X197333100Y-119850600D02*
X197333100Y-118860300D01*
X198157600Y-120675100D02*
X197333100Y-119850600D01*
X199689700Y-120675100D02*
X198157600Y-120675100D01*
X199923100Y-120908500D02*
X199689700Y-120675100D01*
X199923100Y-121920000D02*
X199923100Y-120908500D01*
X257783100Y-139693100D02*
X257783100Y-143369200D01*
X259046200Y-138430000D02*
X257783100Y-139693100D01*
X262680600Y-138430000D02*
X259046200Y-138430000D01*
X263372900Y-137737700D02*
X262680600Y-138430000D01*
X263372900Y-134620000D02*
X263372900Y-137737700D01*
X252579600Y-137160000D02*
X259588000Y-137160000D01*
X243078000Y-127658400D02*
X252579600Y-137160000D01*
X243078000Y-126318200D02*
X243078000Y-127658400D01*
X241749900Y-124990100D02*
X243078000Y-126318200D01*
X241659800Y-124990100D02*
X241749900Y-124990100D01*
X259588000Y-134620000D02*
X260832900Y-134620000D01*
X202438000Y-120650000D02*
X203708000Y-121920000D01*
X202438000Y-118842300D02*
X202438000Y-120650000D01*
X203164100Y-118116200D02*
X202438000Y-118842300D01*
X206802100Y-118116200D02*
X203164100Y-118116200D01*
X207543000Y-118857100D02*
X206802100Y-118116200D01*
X207543000Y-119977700D02*
X207543000Y-118857100D01*
X208190300Y-120625000D02*
X207543000Y-119977700D01*
X214444400Y-120625000D02*
X208190300Y-120625000D01*
X215138000Y-119931400D02*
X214444400Y-120625000D01*
X215138000Y-118867600D02*
X215138000Y-119931400D01*
X216433700Y-117571900D02*
X215138000Y-118867600D01*
X245855000Y-117571900D02*
X216433700Y-117571900D01*
X256553100Y-128270000D02*
X245855000Y-117571900D01*
X262700900Y-128270000D02*
X256553100Y-128270000D01*
X263422700Y-128991800D02*
X262700900Y-128270000D01*
X263422700Y-132598900D02*
X263422700Y-128991800D01*
X262671600Y-133350000D02*
X263422700Y-132598900D01*
X261587100Y-133350000D02*
X262671600Y-133350000D01*
X260832900Y-134104200D02*
X261587100Y-133350000D01*
X260832900Y-134620000D02*
X260832900Y-134104200D01*
X203428900Y-123444000D02*
X203708000Y-123164900D01*
X203428900Y-127000000D02*
X203428900Y-123444000D01*
X202184000Y-127000000D02*
X203428900Y-127000000D01*
X203708000Y-121920000D02*
X203708000Y-123164900D01*
X203428900Y-134178500D02*
X203428900Y-127000000D01*
X205485600Y-136235200D02*
X203428900Y-134178500D01*
X205485600Y-159257600D02*
X205485600Y-136235200D01*
X208788000Y-162560000D02*
X205485600Y-159257600D01*
X221488000Y-121920000D02*
X222732900Y-121920000D01*
X262128000Y-137160000D02*
X260883100Y-137160000D01*
X207671700Y-143663700D02*
X208788000Y-144780000D01*
X207671700Y-141821800D02*
X207671700Y-143663700D01*
X208703300Y-140790200D02*
X207671700Y-141821800D01*
X209654100Y-140790200D02*
X208703300Y-140790200D01*
X210058000Y-140386300D02*
X209654100Y-140790200D01*
X210058000Y-138303300D02*
X210058000Y-140386300D01*
X219964000Y-128397300D02*
X210058000Y-138303300D01*
X219964000Y-127000000D02*
X219964000Y-128397300D01*
X260883100Y-136644200D02*
X260883100Y-137160000D01*
X260128900Y-135890000D02*
X260883100Y-136644200D01*
X255150900Y-135890000D02*
X260128900Y-135890000D01*
X242934300Y-123673400D02*
X255150900Y-135890000D01*
X224019500Y-123673400D02*
X242934300Y-123673400D01*
X222732900Y-122386800D02*
X224019500Y-123673400D01*
X222732900Y-121920000D02*
X222732900Y-122386800D01*
X253212900Y-151104900D02*
X254508000Y-152400000D01*
X249504800Y-151104900D02*
X253212900Y-151104900D01*
X248259900Y-149860000D02*
X249504800Y-151104900D01*
X247015000Y-149860000D02*
X248259900Y-149860000D01*
X221233900Y-128213000D02*
X231757400Y-138736500D01*
X221233900Y-126270000D02*
X221233900Y-128213000D01*
X220524600Y-125560700D02*
X221233900Y-126270000D01*
X219421200Y-125560700D02*
X220524600Y-125560700D01*
X218694000Y-126287900D02*
X219421200Y-125560700D01*
X218694000Y-127694200D02*
X218694000Y-126287900D01*
X215705900Y-130682300D02*
X218694000Y-127694200D01*
X214447700Y-130682300D02*
X215705900Y-130682300D01*
X213938200Y-130172800D02*
X214447700Y-130682300D01*
X213938200Y-129398500D02*
X213938200Y-130172800D01*
X214717600Y-128619100D02*
X213938200Y-129398500D01*
X215177900Y-128619100D02*
X214717600Y-128619100D01*
X216179000Y-127618000D02*
X215177900Y-128619100D01*
X216179000Y-124112900D02*
X216179000Y-127618000D01*
X217678000Y-122613900D02*
X216179000Y-124112900D01*
X217678000Y-121368600D02*
X217678000Y-122613900D01*
X218421700Y-120624900D02*
X217678000Y-121368600D01*
X227085100Y-120624900D02*
X218421700Y-120624900D01*
X227863100Y-119846900D02*
X227085100Y-120624900D01*
X227863100Y-119380000D02*
X227863100Y-119846900D01*
X229108000Y-119380000D02*
X227863100Y-119380000D01*
X244475000Y-147320000D02*
X244475000Y-146075100D01*
X253238000Y-158750000D02*
X251968000Y-160020000D01*
X253238000Y-156210000D02*
X253238000Y-158750000D01*
X254508000Y-154940000D02*
X253238000Y-156210000D01*
X244475000Y-145180200D02*
X244475000Y-146075100D01*
X239365400Y-140070600D02*
X244475000Y-145180200D01*
X223584600Y-140070600D02*
X239365400Y-140070600D01*
X223360900Y-139846900D02*
X223584600Y-140070600D01*
X250320300Y-157480000D02*
X251968000Y-157480000D01*
X245719900Y-152879600D02*
X250320300Y-157480000D01*
X245719900Y-151882900D02*
X245719900Y-152879600D01*
X244941900Y-151104900D02*
X245719900Y-151882900D01*
X244475000Y-151104900D02*
X244941900Y-151104900D01*
X244475000Y-149860000D02*
X244475000Y-151104900D01*
X241808000Y-127000000D02*
X241808000Y-128397300D01*
X255591700Y-146236300D02*
X254508000Y-147320000D01*
X255591700Y-138792600D02*
X255591700Y-146236300D01*
X254763500Y-137964400D02*
X255591700Y-138792600D01*
X251375100Y-137964400D02*
X254763500Y-137964400D01*
X241808000Y-128397300D02*
X251375100Y-137964400D01*
X259588000Y-175260000D02*
X259588000Y-174015100D01*
X255778000Y-158750000D02*
X254508000Y-157480000D01*
X262679000Y-158750000D02*
X255778000Y-158750000D01*
X263388600Y-159459600D02*
X262679000Y-158750000D01*
X263388600Y-170749600D02*
X263388600Y-159459600D01*
X262663200Y-171475000D02*
X263388600Y-170749600D01*
X261551600Y-171475000D02*
X262663200Y-171475000D01*
X260858000Y-172168600D02*
X261551600Y-171475000D01*
X260858000Y-173260900D02*
X260858000Y-172168600D01*
X260103800Y-174015100D02*
X260858000Y-173260900D01*
X259588000Y-174015100D02*
X260103800Y-174015100D01*
X260103800Y-140944900D02*
X259588000Y-140944900D01*
X260858000Y-141699100D02*
X260103800Y-140944900D01*
X260858000Y-150771800D02*
X260858000Y-141699100D01*
X264430400Y-154344200D02*
X260858000Y-150771800D01*
X264430400Y-179827900D02*
X264430400Y-154344200D01*
X262144700Y-182113600D02*
X264430400Y-179827900D01*
X245598400Y-182113600D02*
X262144700Y-182113600D01*
X245077100Y-181592300D02*
X245598400Y-182113600D01*
X205666500Y-181592300D02*
X245077100Y-181592300D01*
X204978000Y-180903800D02*
X205666500Y-181592300D01*
X204978000Y-179839400D02*
X204978000Y-180903800D01*
X204223100Y-179084500D02*
X204978000Y-179839400D01*
X203201600Y-179084500D02*
X204223100Y-179084500D01*
X202412900Y-179873200D02*
X203201600Y-179084500D01*
X202412900Y-180340000D02*
X202412900Y-179873200D01*
X201168000Y-180340000D02*
X202412900Y-180340000D01*
X259588000Y-139700000D02*
X259588000Y-140944900D01*
X213003000Y-148995000D02*
X227965500Y-148995000D01*
X211328000Y-147320000D02*
X213003000Y-148995000D01*
X233864900Y-148995000D02*
X240115400Y-142744500D01*
X227965500Y-148995000D02*
X233864900Y-148995000D01*
X214392600Y-152924600D02*
X232789700Y-152924600D01*
X211328000Y-149860000D02*
X214392600Y-152924600D01*
X232789700Y-152924600D02*
X241794700Y-143919600D01*
X233026700Y-153161600D02*
X232789700Y-152924600D01*
X233026700Y-154008200D02*
X233026700Y-153161600D01*
X198628000Y-119380000D02*
X199872900Y-119380000D01*
X262128000Y-127000000D02*
X260883100Y-127000000D01*
X260883100Y-126484200D02*
X260883100Y-127000000D01*
X260128900Y-125730000D02*
X260883100Y-126484200D01*
X257843400Y-125730000D02*
X260128900Y-125730000D01*
X248668700Y-116555300D02*
X257843400Y-125730000D01*
X202230800Y-116555300D02*
X248668700Y-116555300D01*
X199872900Y-118913200D02*
X202230800Y-116555300D01*
X199872900Y-119380000D02*
X199872900Y-118913200D01*
X209878100Y-150950100D02*
X211328000Y-152400000D01*
X208351100Y-150950100D02*
X209878100Y-150950100D01*
X205994000Y-148593000D02*
X208351100Y-150950100D01*
X205994000Y-125397700D02*
X205994000Y-148593000D01*
X204952900Y-124356600D02*
X205994000Y-125397700D01*
X204952900Y-121402900D02*
X204952900Y-124356600D01*
X204174900Y-120624900D02*
X204952900Y-121402900D01*
X203708000Y-120624900D02*
X204174900Y-120624900D01*
X203708000Y-119380000D02*
X203708000Y-120624900D01*
X211328000Y-119380000D02*
X212572900Y-119380000D01*
X259588000Y-127000000D02*
X258343100Y-127000000D01*
X248406700Y-117063600D02*
X258343100Y-127000000D01*
X214422500Y-117063600D02*
X248406700Y-117063600D01*
X212572900Y-118913200D02*
X214422500Y-117063600D01*
X212572900Y-119380000D02*
X212572900Y-118913200D01*
X252059900Y-132080000D02*
X259588000Y-132080000D01*
X243144900Y-123165000D02*
X252059900Y-132080000D01*
X231121600Y-123165000D02*
X243144900Y-123165000D01*
X230378000Y-122421400D02*
X231121600Y-123165000D01*
X230378000Y-118884400D02*
X230378000Y-122421400D01*
X229598900Y-118105300D02*
X230378000Y-118884400D01*
X218460800Y-118105300D02*
X229598900Y-118105300D01*
X217652900Y-118913200D02*
X218460800Y-118105300D01*
X217652900Y-119380000D02*
X217652900Y-118913200D01*
X216408000Y-119380000D02*
X217652900Y-119380000D01*
X260883100Y-131564200D02*
X260883100Y-132080000D01*
X260128900Y-130810000D02*
X260883100Y-131564200D01*
X256998600Y-130810000D02*
X260128900Y-130810000D01*
X246813500Y-120624900D02*
X256998600Y-130810000D01*
X241290900Y-120624900D02*
X246813500Y-120624900D01*
X240512900Y-119846900D02*
X241290900Y-120624900D01*
X240512900Y-119380000D02*
X240512900Y-119846900D01*
X239268000Y-119380000D02*
X240512900Y-119380000D01*
X262128000Y-132080000D02*
X260883100Y-132080000D01*
X257364600Y-172720000D02*
X259588000Y-172720000D01*
X254460000Y-169815400D02*
X257364600Y-172720000D01*
M02*
